<?xml version="1.0" standalone="no"?>
<!DOCTYPE svg PUBLIC "-//W3C//DTD SVG 20010904//EN"
 "http://www.w3.org/TR/2001/REC-SVG-20010904/DTD/svg10.dtd">
<svg version="1.0" xmlns="http://www.w3.org/2000/svg"
 width="743.000000pt" height="1076.000000pt" viewBox="0 0 743.000000 1076.000000"
 preserveAspectRatio="xMidYMid meet">

<g transform="translate(0.000000,1076.000000) scale(0.100000,-0.100000)"
fill="#000000" stroke="none">
<path d="M3070 10267 c0 -17 285 -707 333 -807 25 -51 50 -61 78 -32 27 29 78
34 309 29 210 -5 312 -16 384 -41 23 -7 75 -23 116 -36 41 -12 139 -54 218
-93 208 -103 205 -86 -19 113 -100 90 -192 171 -203 181 -12 10 -86 60 -166
110 -133 85 -245 143 -470 244 -47 21 -190 105 -317 187 -254 162 -263 167
-263 145z"/>
<path d="M3541 9352 c13 -22 116 -155 229 -295 l205 -255 175 -75 c295 -128
511 -217 527 -217 10 0 13 10 11 37 -3 43 17 29 -378 253 -124 71 -235 137
-247 147 -12 10 -125 106 -251 214 -126 109 -244 205 -262 214 l-33 17 24 -40z"/>
<path d="M4733 9113 c3 -10 60 -153 126 -318 111 -275 129 -325 117 -325 -3 0
-43 29 -91 65 -70 53 -90 64 -101 54 -25 -20 -16 -39 59 -117 146 -156 287
-309 307 -335 22 -28 80 -39 80 -15 0 34 -147 452 -182 517 -99 186 -126 234
-200 359 -60 100 -85 132 -100 132 -15 0 -19 -5 -15 -17z"/>
<path d="M3670 8645 c-94 -26 -406 -135 -485 -170 -27 -12 -84 -44 -125 -71
-41 -27 -80 -51 -87 -54 -18 -7 -168 -142 -182 -162 -21 -33 22 -20 158 47 72
35 164 76 204 89 39 13 158 58 263 99 250 99 287 108 624 152 120 16 160 28
129 39 -43 16 -299 56 -352 55 -34 0 -100 -11 -147 -24z"/>
<path d="M1960 8369 c-85 -5 -195 -13 -245 -19 -90 -12 -502 -123 -519 -140
-13 -13 82 -150 104 -150 8 0 54 16 100 35 177 74 319 107 635 149 173 23 264
28 505 30 l225 1 3 28 c2 19 -1 27 -12 28 -9 1 -19 2 -23 3 -5 1 -55 6 -113
10 -58 4 -159 11 -225 17 -179 14 -264 16 -435 8z"/>
<path d="M728 7974 c-194 -97 -374 -186 -400 -197 -32 -14 -48 -27 -48 -39 0
-10 4 -18 9 -18 5 0 45 -22 88 -48 120 -73 164 -91 353 -140 166 -44 182 -46
310 -46 110 0 734 51 858 70 42 6 45 41 5 49 -87 19 -242 74 -328 117 -121 61
-174 89 -177 96 -2 4 -30 27 -63 51 -100 74 -162 140 -200 212 -20 38 -40 69
-45 69 -5 0 -167 -79 -362 -176z"/>
<path d="M5235 8037 c-4 -8 6 -43 20 -78 14 -35 41 -125 59 -200 52 -209 109
-381 175 -524 53 -118 62 -132 100 -153 73 -42 76 -27 22 105 -27 65 -60 143
-74 173 -32 72 -114 317 -121 365 -4 20 -15 58 -25 83 -10 26 -34 85 -52 132
-39 100 -37 97 -71 105 -20 5 -29 3 -33 -8z"/>
<path d="M2595 8007 c-14 -17 -102 -197 -110 -224 -3 -13 -10 -23 -15 -23 -5
0 -7 -12 -6 -27 2 -16 -4 -39 -13 -52 -13 -20 -15 -56 -15 -200 0 -97 6 -203
13 -236 6 -33 14 -75 16 -93 3 -18 9 -41 14 -50 15 -29 34 -162 36 -262 4
-141 13 -165 52 -150 17 7 23 20 28 62 18 154 4 397 -30 513 -25 88 -38 328
-22 410 4 22 13 49 20 60 7 11 18 38 25 60 6 23 27 59 47 82 39 46 43 71 18
114 -18 30 -41 37 -58 16z"/>
<path d="M2188 7761 c-114 -37 -213 -72 -219 -78 -14 -14 -3 -83 13 -83 5 0
62 22 127 49 64 26 153 63 198 81 94 37 108 46 118 78 5 17 2 22 -12 21 -10 0
-111 -31 -225 -68z"/>
<path d="M4820 7686 c-79 -23 -97 -34 -121 -73 -13 -21 -24 -40 -25 -43 0 -3
-5 -16 -11 -30 -6 -14 -16 -64 -23 -112 -10 -76 -10 -96 5 -154 20 -80 53
-134 104 -167 77 -51 151 -55 246 -14 60 26 63 29 123 89 68 67 96 144 96 262
1 82 -2 95 -26 132 -60 93 -239 147 -368 110z m70 -143 c9 -10 17 -37 18 -59
4 -53 -25 -84 -77 -84 -44 0 -71 24 -71 65 0 37 15 59 55 80 39 19 57 19 75
-2z"/>
<path d="M3001 7399 c-79 -20 -97 -30 -148 -77 -84 -78 -119 -241 -88 -407 13
-71 76 -119 196 -149 54 -14 74 -15 138 -5 63 10 80 17 103 43 15 17 28 34 28
38 0 3 8 9 18 12 67 22 131 338 89 439 -17 40 -90 107 -117 107 -11 0 -20 5
-20 10 0 17 -120 10 -199 -11z m203 -128 c26 -27 28 -35 24 -87 -4 -47 -10
-62 -32 -81 -33 -28 -37 -28 -67 -4 -17 14 -25 33 -29 72 -7 64 11 106 50 122
24 9 25 8 54 -22z"/>
<path d="M2190 7201 c-80 -32 -239 -95 -355 -140 -115 -46 -394 -157 -620
-246 -226 -89 -499 -198 -608 -241 l-199 -78 6 -36 c3 -19 23 -98 45 -175 22
-77 44 -159 51 -182 6 -26 17 -43 26 -43 11 0 148 63 161 74 3 2 -60 182 -86
250 -14 35 -7 44 54 69 22 9 162 67 310 128 149 62 290 120 315 129 25 10 167
68 315 130 257 107 448 186 635 263 81 33 86 37 102 78 20 53 22 79 6 79 -7
-1 -78 -27 -158 -59z"/>
<path d="M6234 7228 c-16 -13 -72 -61 -126 -108 -54 -48 -147 -116 -212 -155
l-116 -69 0 -59 c0 -56 1 -58 23 -51 17 5 226 89 273 110 13 6 16 -4 40 -155
17 -106 21 -115 50 -138 l32 -24 98 21 c135 28 128 30 121 -32 -5 -52 -91
-292 -163 -459 -20 -46 -52 -124 -71 -172 -51 -131 -263 -459 -363 -562 l-78
-80 -7 -78 c-4 -43 -5 -80 -2 -83 3 -4 36 4 73 16 108 36 169 95 307 300 138
205 190 308 282 560 37 102 89 246 117 320 128 347 208 573 208 590 0 17 -5
18 -32 12 -18 -4 -55 -7 -83 -7 -49 0 -50 0 -53 34 -3 33 -4 33 -46 28 -51 -7
-67 5 -59 44 6 32 -5 37 -97 41 l-55 3 -2 45 c-5 75 -14 130 -22 130 -5 0 -21
-10 -37 -22z"/>
<path d="M4010 7233 c-8 -4 -21 -14 -30 -25 -10 -12 -31 -19 -65 -20 -44 -3
-50 -6 -53 -26 -4 -30 14 -52 43 -52 12 0 34 -9 49 -21 15 -11 32 -19 39 -16
7 3 25 35 40 73 20 50 24 71 16 81 -12 14 -16 15 -39 6z"/>
<path d="M5456 7073 c-21 -3 -48 -10 -60 -17 -12 -8 -33 -16 -47 -20 -34 -7
-94 -56 -123 -99 -48 -70 -96 -246 -96 -348 0 -90 78 -259 132 -286 34 -17
119 -39 144 -37 20 1 110 64 161 113 43 41 72 108 103 241 44 185 48 241 21
328 l-21 69 -75 32 c-41 17 -80 30 -87 29 -7 -1 -31 -3 -52 -5z"/>
<path d="M3920 6873 c-32 -53 -169 -203 -185 -203 -15 0 -105 -45 -105 -52 0
-5 -20 -8 -45 -8 -60 0 -63 -27 -5 -36 22 -4 48 -14 58 -23 10 -9 43 -71 72
-138 30 -68 57 -123 61 -123 4 0 11 10 15 23 10 33 72 157 87 172 6 7 22 23
34 36 49 54 78 65 205 79 147 17 221 7 281 -37 69 -51 76 -44 79 79 l3 102 75
21 c82 23 130 49 130 71 0 19 -7 18 -86 -13 -65 -25 -79 -27 -229 -27 -117 0
-175 4 -215 16 -90 26 -149 58 -166 89 -8 16 -18 29 -22 29 -4 0 -23 -26 -42
-57z"/>
<path d="M2664 6656 c-28 -7 -66 -24 -84 -38 l-33 -26 -4 -198 c-3 -148 0
-209 9 -237 8 -23 56 -84 123 -156 l110 -119 69 -1 c98 -1 121 16 193 142 81
140 97 195 91 310 -5 95 -19 139 -68 211 -14 20 -29 36 -33 36 -4 0 -19 11
-32 25 -14 13 -42 27 -63 30 -20 3 -72 12 -115 20 -90 17 -95 17 -163 1z"/>
<path d="M4413 6383 c-6 -16 -18 -57 -27 -93 -10 -36 -30 -112 -45 -170 -16
-58 -41 -152 -56 -210 -15 -58 -31 -109 -35 -114 -11 -11 -143 122 -358 357
-53 59 -92 65 -92 15 1 -35 18 -54 333 -375 106 -109 136 -133 159 -133 15 0
28 4 28 8 0 4 29 138 65 297 100 442 97 427 83 437 -25 15 -46 8 -55 -19z"/>
<path d="M5419 6103 c-129 -125 -437 -473 -418 -473 6 0 70 31 143 70 118 62
141 79 222 162 50 51 100 111 111 133 25 49 77 215 70 222 -3 3 -60 -48 -128
-114z"/>
<path d="M2480 6008 c-12 -30 -61 -196 -150 -513 -28 -98 -35 -164 -57 -521
l-6 -102 144 2 c79 2 199 3 267 4 l122 2 0 74 c0 69 -2 75 -22 81 -21 7 -215
85 -300 122 -25 10 -38 23 -38 35 0 10 23 107 51 216 28 108 57 224 64 257 8
33 23 95 35 138 l21 78 -47 75 c-48 77 -68 90 -84 52z"/>
<path d="M631 5986 c-30 -12 -56 -27 -59 -34 -3 -10 87 -324 148 -517 25 -78
119 -390 132 -437 6 -20 18 -38 28 -41 18 -4 148 79 1079 688 92 61 229 150
304 199 147 96 171 126 102 126 -37 0 -154 -53 -600 -270 -126 -62 -320 -155
-430 -207 -110 -52 -244 -118 -298 -145 -54 -28 -101 -48 -104 -44 -3 3 -11
27 -18 53 -7 27 -52 182 -99 346 -47 163 -86 300 -86 302 0 11 -48 2 -99 -19z"/>
<path d="M2850 5835 c7 -8 60 -49 117 -91 75 -55 138 -91 222 -126 231 -98
256 -103 249 -56 -2 18 -28 32 -143 79 -84 34 -190 87 -264 133 -92 56 -134
76 -159 76 -30 0 -33 -2 -22 -15z"/>
<path d="M2870 5700 c-8 -15 -7 -32 5 -66 12 -37 16 -94 16 -278 0 -199 -4
-255 -27 -406 -24 -159 -33 -192 -96 -363 -84 -226 -280 -626 -315 -642 -13
-5 -23 -18 -23 -30 0 -15 24 -32 96 -70 103 -54 109 -54 118 10 3 17 10 66 17
110 13 92 79 276 150 417 74 148 134 323 144 423 3 33 17 170 30 305 14 135
25 300 25 368 l0 123 -57 60 c-31 32 -60 59 -64 59 -5 0 -13 -9 -19 -20z"/>
<path d="M5532 5644 c-6 -11 -15 -92 -21 -180 -6 -87 -14 -170 -16 -184 -3
-14 5 -68 19 -120 47 -184 78 -295 86 -311 9 -15 111 -49 150 -49 26 0 26 33
0 102 -20 52 -25 65 -50 123 -8 17 -14 35 -16 40 -1 6 -21 64 -44 129 -25 70
-44 143 -46 175 -6 113 -27 262 -39 278 -11 15 -13 15 -23 -3z"/>
<path d="M3740 5193 c-11 -14 -19 -30 -18 -34 2 -4 93 -99 203 -211 190 -193
204 -210 276 -333 42 -71 84 -145 93 -164 16 -31 65 -311 66 -373 l0 -28 -109
0 -108 0 -47 -37 -46 -38 0 -96 c0 -90 -2 -97 -21 -102 -26 -7 -292 132 -429
223 -98 66 -243 193 -385 338 -59 60 -86 81 -98 76 -9 -3 -17 -12 -17 -18 0
-7 35 -66 78 -132 62 -93 101 -139 180 -212 137 -127 232 -201 327 -255 73
-42 485 -227 505 -227 5 0 10 12 12 28 3 27 4 27 67 25 l63 -3 -8 28 c-4 15
-8 41 -8 57 -1 33 4 34 82 22 l44 -8 -8 33 c-4 18 -8 47 -8 63 -1 30 -1 30 66
35 l66 5 -34 85 c-51 123 -81 234 -89 325 -11 113 -11 115 -25 165 -7 25 -13
54 -15 65 -5 37 -47 135 -57 135 -5 0 -8 5 -8 10 0 11 -79 141 -90 150 -4 3
-36 41 -71 85 -97 122 -177 202 -250 250 -36 24 -72 50 -80 57 -12 12 -63 38
-74 38 -2 0 -13 -12 -25 -27z"/>
<path d="M5438 4774 c-43 -23 -35 -41 25 -54 176 -40 284 -86 391 -167 134
-103 213 -192 270 -303 16 -30 30 -56 31 -58 1 -2 28 7 59 20 34 14 56 29 56
39 0 8 -12 40 -26 69 -71 148 -232 323 -346 378 -66 32 -145 57 -217 68 -20 3
-43 10 -52 15 -27 14 -161 9 -191 -7z"/>
<path d="M6294 4204 c-154 -81 -278 -181 -401 -324 -99 -116 -115 -142 -93
-155 9 -6 138 90 360 266 138 109 182 141 187 136 3 -3 -3 -37 -13 -76 -10
-39 -15 -74 -10 -78 24 -24 101 120 121 226 5 28 -10 61 -29 61 -7 0 -62 -25
-122 -56z"/>
<path d="M6486 4193 c-3 -3 -6 -20 -6 -37 0 -35 -17 -103 -30 -120 -5 -6 -30
-35 -55 -64 -45 -52 -58 -92 -31 -92 8 0 47 23 88 50 73 50 118 108 118 152 0
46 -64 131 -84 111z"/>
<path d="M2118 3883 c-13 -3 -18 -14 -18 -36 1 -61 18 -107 66 -173 27 -36 53
-74 58 -83 20 -38 126 -89 126 -62 0 6 -20 52 -45 101 -52 103 -47 116 26 79
24 -13 46 -26 49 -29 4 -6 75 -48 180 -108 19 -11 50 -28 67 -38 l32 -19 28
28 28 28 -25 21 c-69 57 -359 258 -372 258 -9 0 -34 6 -56 14 -47 17 -119 27
-144 19z"/>
<path d="M6479 3879 c-16 -6 -32 -23 -39 -42 -36 -96 -81 -160 -220 -310 -153
-165 -286 -280 -394 -340 -37 -21 -62 -27 -107 -27 -32 0 -61 5 -64 10 -8 14
24 107 47 139 10 13 18 28 18 33 0 5 9 19 20 31 28 29 25 100 -4 105 -18 4
-60 -13 -82 -33 -107 -97 -152 -151 -187 -224 -23 -46 -24 -183 -1 -202 8 -7
22 -25 29 -40 11 -21 24 -28 60 -34 68 -10 197 21 251 59 98 71 456 391 502
449 61 78 169 239 182 271 5 13 13 27 19 30 13 9 25 89 16 115 -7 23 -9 24
-46 10z"/>
<path d="M2017 3855 c-59 -56 -15 -173 117 -309 30 -31 62 -56 69 -56 33 0 24
33 -30 107 -100 140 -103 146 -103 218 0 73 -9 80 -53 40z"/>
<path d="M2030 3585 c0 -20 16 -52 92 -179 89 -149 127 -196 287 -355 155
-153 198 -189 409 -345 127 -93 137 -99 213 -114 l80 -15 52 51 51 51 0 68 c0
80 -30 150 -89 201 -62 55 -83 35 -56 -51 14 -43 14 -51 0 -75 -12 -21 -23
-28 -56 -30 -33 -2 -47 2 -75 26 -18 15 -190 163 -383 327 -192 165 -387 334
-432 377 -45 43 -84 78 -87 78 -3 0 -6 -7 -6 -15z"/>
<path d="M4653 3169 c-93 -8 -344 -47 -628 -99 -60 -11 -128 -23 -150 -26 -79
-11 -183 -36 -335 -81 -85 -25 -162 -47 -170 -50 -27 -7 -86 -113 -64 -113 5
0 236 46 759 150 116 23 260 48 320 56 61 7 137 18 170 23 187 33 489 42 585
19 25 -5 73 -12 108 -15 51 -4 62 -2 62 11 0 17 -75 72 -118 86 -23 8 -425 53
-434 49 -2 -1 -49 -6 -105 -10z"/>
<path d="M6045 2969 c-27 -22 -194 -136 -370 -253 -306 -204 -508 -320 -685
-395 -41 -18 -98 -43 -127 -57 -28 -13 -58 -24 -65 -24 -7 0 -33 21 -58 46
-49 51 -124 103 -186 129 -27 12 -75 18 -159 21 -102 3 -132 0 -200 -20 -102
-29 -184 -63 -213 -90 -44 -39 -122 -121 -122 -128 0 -3 -8 -14 -17 -24 -10
-10 -34 -65 -53 -123 -31 -94 -38 -106 -60 -109 -14 -2 -108 -22 -210 -45
l-185 -41 -509 3 -509 3 5 -44 c3 -23 14 -59 24 -79 48 -91 85 -169 82 -172
-10 -12 29 -37 58 -37 19 0 34 -4 34 -8 0 -23 242 -47 465 -47 126 0 322 12
336 21 5 3 86 9 181 13 95 5 200 15 233 21 82 18 170 6 202 -26 13 -13 26 -24
30 -24 3 0 22 -13 42 -28 40 -31 122 -69 218 -101 69 -23 166 -27 210 -10 15
6 37 15 48 19 11 4 37 15 58 24 21 9 43 16 50 16 25 0 134 85 183 144 54 63
105 161 97 182 -2 7 0 15 6 18 5 4 13 37 17 75 l6 69 402 248 c597 370 856
531 873 545 16 14 16 16 -12 164 -16 85 -47 166 -63 164 -4 0 -29 -18 -57 -40z
m-1630 -759 c22 -5 58 -17 80 -26 22 -10 42 -18 45 -19 12 -3 77 -45 93 -62
38 -37 49 -73 49 -170 1 -52 -3 -98 -8 -101 -6 -4 -16 -27 -24 -52 -8 -24 -30
-63 -50 -85 -19 -23 -44 -53 -55 -66 -26 -31 -76 -59 -107 -59 -12 0 -36 -7
-52 -15 -32 -17 -166 -21 -166 -5 0 6 -7 10 -15 10 -23 0 -115 67 -115 85 0 3
-13 19 -30 35 -16 16 -32 41 -35 57 -4 15 -11 38 -17 50 -16 32 -4 180 16 202
9 10 16 24 16 33 0 8 12 26 28 41 53 51 85 77 93 77 5 0 28 14 51 30 37 26 97
46 148 49 8 0 33 -4 55 -9z"/>
<path d="M4327 2123 c-16 -8 -37 -16 -48 -18 -42 -8 -128 -56 -152 -84 -23
-28 -25 -37 -23 -123 3 -121 21 -159 89 -196 27 -15 59 -33 71 -39 12 -7 48
-13 81 -13 76 0 142 30 185 85 42 52 50 75 61 164 9 78 2 103 -39 147 -11 11
-25 30 -31 43 -7 12 -24 27 -39 32 -45 17 -125 19 -155 2z"/>
<path d="M2452 2870 c-38 -44 -122 -200 -150 -280 -45 -123 -55 -322 -26 -486
16 -90 18 -92 46 -96 17 -3 31 0 33 6 2 6 6 110 8 231 4 216 8 245 50 400 15
55 45 115 72 145 20 21 23 32 18 73 -3 26 -8 47 -12 46 -3 0 -21 -18 -39 -39z"/>
<path d="M6142 2518 c-5 -7 -13 -38 -17 -68 -5 -30 -9 -64 -11 -75 -1 -11 -7
-60 -13 -110 -6 -49 -15 -107 -20 -127 -5 -20 -7 -39 -5 -41 3 -2 -5 -42 -15
-88 -11 -46 -29 -139 -41 -205 -15 -91 -31 -147 -63 -220 -24 -55 -61 -139
-82 -189 -22 -49 -68 -132 -104 -184 -67 -98 -218 -253 -306 -315 -154 -109
-314 -212 -345 -223 -19 -6 -80 -28 -135 -48 -193 -70 -377 -100 -626 -104
-169 -3 -241 7 -444 61 -174 47 -546 207 -692 299 -172 108 -204 129 -283 188
-47 35 -89 69 -95 75 -11 12 -210 187 -297 260 l-58 48 0 -35 c0 -38 18 -87
32 -87 4 0 8 -5 8 -11 0 -16 37 -60 115 -138 114 -114 204 -195 235 -212 16
-9 45 -28 64 -43 19 -14 39 -26 45 -26 6 0 11 -4 11 -8 0 -4 12 -15 28 -24 15
-9 36 -25 48 -35 27 -24 55 -42 77 -49 9 -4 17 -10 17 -15 0 -5 6 -9 14 -9 8
0 28 -11 44 -25 25 -21 100 -62 297 -163 66 -34 155 -72 169 -72 7 0 53 -18
103 -39 50 -22 108 -43 130 -47 21 -4 53 -13 71 -21 19 -8 55 -16 80 -18 26
-2 70 -9 97 -15 31 -7 152 -12 315 -12 252 0 271 1 385 27 66 14 127 28 135
30 26 5 193 88 212 104 10 9 22 16 27 16 4 0 15 8 25 17 10 10 23 18 30 18 7
0 23 11 36 25 13 14 29 25 37 25 7 0 21 9 30 20 10 11 21 20 26 20 5 0 25 12
43 27 85 69 100 81 119 87 11 3 31 25 45 47 14 22 37 48 51 56 14 8 38 36 54
62 16 25 35 50 42 54 7 4 13 14 13 21 0 7 16 34 36 60 30 39 125 240 179 376
40 103 105 328 119 415 20 126 69 644 62 662 -7 16 -40 17 -54 1z"/>
</g>
</svg>
